<svg width="840" height="756" viewBox="0 0 840 756" fill="none" xmlns="http://www.w3.org/2000/svg">
<path d="M620.473 715.58C729.132 583.362 540.309 359.04 418.678 302.401C297.048 359.04 103.403 583.361 212.062 715.579C262.57 765.074 313.67 773.702 418.678 715.58C523.686 773.702 569.965 765.075 620.473 715.58Z" fill="black"/>
<path d="M89.1621 474.754C62.4998 475.607 -28.2875 402.19 56.7623 246.828C138.959 96.678 249.137 469.636 89.1621 474.754Z" fill="black"/>
<path d="M750.838 499.953C777.5 500.806 868.287 427.39 783.238 272.027C701.041 121.878 590.863 494.836 750.838 499.953Z" fill="black"/>
<path d="M570.714 273.153C597.376 274.005 688.163 200.589 603.114 45.2267C520.917 -104.923 410.739 268.035 570.714 273.153Z" fill="black"/>
<path d="M291.8 273.153C265.137 274.005 174.35 200.589 259.4 45.2267C341.596 -104.923 451.774 268.035 291.8 273.153Z" fill="black"/>
</svg>
